<?xml version="1.0" standalone="no"?>
<!DOCTYPE svg PUBLIC "-//W3C//DTD SVG 1.1//EN" "http://www.w3.org/Graphics/SVG/1.1/DTD/svg11.dtd">
<svg width="100%" height="100%" viewBox="0 0 14 14" version="1.1" xmlns="http://www.w3.org/2000/svg" xmlns:xlink="http://www.w3.org/1999/xlink" xml:space="preserve" style="fill-rule:evenodd;clip-rule:evenodd;stroke-linejoin:round;stroke-miterlimit:1.41421;">
    <g>
        <path d="M7,9L5.268,7.484L0.316,11.729C0.496,11.896 0.739,12 1.007,12L12.993,12C13.26,12 13.502,11.896 13.681,11.729L8.732,7.484L7,9Z" style="fill:white;fill-rule:nonzero;"/>
        <path d="M13.684,2.271C13.504,2.103 13.262,2 12.993,2L1.007,2C0.74,2 0.498,2.104 0.318,2.273L7,8L13.684,2.271Z" style="fill:white;fill-rule:nonzero;"/>
        <path d="M0,2.878L0,11.186L4.833,7.079L0,2.878Z" style="fill:white;fill-rule:nonzero;"/>
        <path d="M9.167,7.079L14,11.186L14,2.875L9.167,7.079Z" style="fill:white;fill-rule:nonzero;"/>
    </g>
</svg>
